<svg viewBox="0 0 1962 606" width="1962" height="606" xmlns="http://www.w3.org/2000/svg" style="min-width:1962px"><rect x="0" y="0" width="1962" height="606" rx="12" fill="#14171d"/><text x="24" y="30" fill="#9aa3b2" font-size="13" font-weight="600">输入端 / Inputs · 深度 8</text><text x="1938" y="30" text-anchor="end" fill="#9aa3b2" font-size="13" font-weight="600">输出端 / Outputs</text><line x1="24" y1="42" x2="1938" y2="42" stroke="#2a2f3a" stroke-width="1"/><text x="981.0" y="30" text-anchor="middle" fill="#5b9dff" font-size="12">数据流 →</text><path d="M180,87 C200,87 200,87 220,87" fill="none" stroke="#3a4150" stroke-width="1.3" opacity="0.65"/><path d="M180,133 C200,133 200,87 220,87" fill="none" stroke="#3a4150" stroke-width="1.3" opacity="0.65"/><path d="M376,87 C396,87 396,87 416,87" fill="none" stroke="#3a4150" stroke-width="1.3" opacity="0.65"/><path d="M376,87 C396,87 396,225 416,225" fill="none" stroke="#3a4150" stroke-width="1.3" opacity="0.65"/><path d="M376,87 C396,87 396,363 416,363" fill="none" stroke="#3a4150" stroke-width="1.3" opacity="0.65"/><path d="M572,87 C592,87 592,87 612,87" fill="none" stroke="#3a4150" stroke-width="1.3" opacity="0.65"/><path d="M572,133 C592,133 592,87 612,87" fill="none" stroke="#3a4150" stroke-width="1.3" opacity="0.65"/><path d="M768,87 C788,87 788,87 808,87" fill="none" stroke="#3a4150" stroke-width="1.3" opacity="0.65"/><path d="M572,179 C690,179 690,87 808,87" fill="none" stroke="#3a4150" stroke-width="1.3" opacity="0.65"/><path d="M572,225 C592,225 592,133 612,133" fill="none" stroke="#3a4150" stroke-width="1.3" opacity="0.65"/><path d="M572,271 C592,271 592,133 612,133" fill="none" stroke="#3a4150" stroke-width="1.3" opacity="0.65"/><path d="M768,133 C788,133 788,133 808,133" fill="none" stroke="#3a4150" stroke-width="1.3" opacity="0.65"/><path d="M572,317 C690,317 690,133 808,133" fill="none" stroke="#3a4150" stroke-width="1.3" opacity="0.65"/><path d="M572,363 C690,363 690,179 808,179" fill="none" stroke="#3a4150" stroke-width="1.3" opacity="0.65"/><path d="M572,409 C690,409 690,179 808,179" fill="none" stroke="#3a4150" stroke-width="1.3" opacity="0.65"/><path d="M572,363 C690,363 690,225 808,225" fill="none" stroke="#3a4150" stroke-width="1.3" opacity="0.65"/><path d="M572,455 C690,455 690,225 808,225" fill="none" stroke="#3a4150" stroke-width="1.3" opacity="0.65"/><path d="M572,501 C690,501 690,225 808,225" fill="none" stroke="#3a4150" stroke-width="1.3" opacity="0.65"/><path d="M768,179 C788,179 788,271 808,271" fill="none" stroke="#3a4150" stroke-width="1.3" opacity="0.65"/><path d="M572,363 C690,363 690,271 808,271" fill="none" stroke="#3a4150" stroke-width="1.3" opacity="0.65"/><path d="M572,547 C690,547 690,271 808,271" fill="none" stroke="#3a4150" stroke-width="1.3" opacity="0.65"/><path d="M1160,87 C1278,87 1278,133 1396,133" fill="none" stroke="#3a4150" stroke-width="1.3" opacity="0.65"/><path d="M1160,133 C1278,133 1278,133 1396,133" fill="none" stroke="#3a4150" stroke-width="1.3" opacity="0.65"/><path d="M964,87 C1376,87 1376,87 1788,87" fill="none" stroke="#5b9dff" stroke-width="1.6" opacity="0.85"/><rect x="1788" y="70" width="150" height="34" rx="6" fill="#5b9dff22" stroke="#5b9dff" stroke-width="1.5"/><text x="1863.0" y="91" text-anchor="middle" fill="#fff" font-size="11" font-weight="700">BaseColor</text><path d="M964,179 C1376,179 1376,133 1788,133" fill="none" stroke="#5b9dff" stroke-width="1.6" opacity="0.85"/><rect x="1788" y="116" width="150" height="34" rx="6" fill="#5b9dff22" stroke="#5b9dff" stroke-width="1.5"/><text x="1863.0" y="137" text-anchor="middle" fill="#fff" font-size="11" font-weight="700">Metallic</text><path d="M964,225 C1376,225 1376,179 1788,179" fill="none" stroke="#5b9dff" stroke-width="1.6" opacity="0.85"/><rect x="1788" y="162" width="150" height="34" rx="6" fill="#5b9dff22" stroke="#5b9dff" stroke-width="1.5"/><text x="1863.0" y="183" text-anchor="middle" fill="#fff" font-size="11" font-weight="700">Roughness</text><path d="M1552,87 C1670,87 1670,225 1788,225" fill="none" stroke="#5b9dff" stroke-width="1.6" opacity="0.85"/><rect x="1788" y="208" width="150" height="34" rx="6" fill="#5b9dff22" stroke="#5b9dff" stroke-width="1.5"/><text x="1863.0" y="229" text-anchor="middle" fill="#fff" font-size="11" font-weight="700">Specular</text><path d="M964,133 C1376,133 1376,271 1788,271" fill="none" stroke="#5b9dff" stroke-width="1.6" opacity="0.85"/><rect x="1788" y="254" width="150" height="34" rx="6" fill="#5b9dff22" stroke="#5b9dff" stroke-width="1.5"/><text x="1863.0" y="275" text-anchor="middle" fill="#fff" font-size="11" font-weight="700">Normal</text><path d="M964,271 C1376,271 1376,317 1788,317" fill="none" stroke="#5b9dff" stroke-width="1.6" opacity="0.85"/><rect x="1788" y="300" width="150" height="34" rx="6" fill="#5b9dff22" stroke="#5b9dff" stroke-width="1.5"/><text x="1863.0" y="321" text-anchor="middle" fill="#fff" font-size="11" font-weight="700">AmbientOcclusion</text><path d="M1552,133 C1670,133 1670,363 1788,363" fill="none" stroke="#5b9dff" stroke-width="1.6" opacity="0.85"/><rect x="1788" y="346" width="150" height="34" rx="6" fill="#5b9dff22" stroke="#5b9dff" stroke-width="1.5"/><text x="1863.0" y="367" text-anchor="middle" fill="#fff" font-size="11" font-weight="700">EmissiveColor</text><rect x="24" y="70" width="156" height="34" rx="6" fill="#5a62701f" stroke="#5a6270" stroke-width="1.4"/><rect x="24" y="70" width="4" height="34" rx="2" fill="#5a6270"/><text x="35" y="84" fill="#e6e9ef" font-size="9.5" font-weight="600">UV0</text><text x="35" y="96" fill="#9aa3b2" font-size="8.5">TexCoord</text><rect x="24" y="116" width="156" height="34" rx="6" fill="#8b7cff1f" stroke="#8b7cff" stroke-width="2.2"/><rect x="24" y="116" width="4" height="34" rx="2" fill="#8b7cff"/><text x="35" y="130" fill="#e6e9ef" font-size="9.5" font-weight="600">UV Tiling ★</text><text x="35" y="142" fill="#9aa3b2" font-size="8.5">ScalarParameter</text><rect x="220" y="70" width="156" height="34" rx="6" fill="#5a62701f" stroke="#5a6270" stroke-width="1.4"/><rect x="220" y="70" width="4" height="34" rx="2" fill="#5a6270"/><text x="231" y="84" fill="#e6e9ef" font-size="9.5" font-weight="600">UV * Tiling</text><text x="231" y="96" fill="#9aa3b2" font-size="8.5">Multiply</text><rect x="416" y="70" width="156" height="34" rx="6" fill="#5b9dff1f" stroke="#5b9dff" stroke-width="1.4"/><rect x="416" y="70" width="4" height="34" rx="2" fill="#5b9dff"/><text x="427" y="84" fill="#e6e9ef" font-size="9.5" font-weight="600">BaseColor Tex</text><text x="427" y="96" fill="#9aa3b2" font-size="8.5">TextureSample</text><rect x="416" y="116" width="156" height="34" rx="6" fill="#8b7cff1f" stroke="#8b7cff" stroke-width="2.2"/><rect x="416" y="116" width="4" height="34" rx="2" fill="#8b7cff"/><text x="427" y="130" fill="#e6e9ef" font-size="9.5" font-weight="600">Color Tint ★</text><text x="427" y="142" fill="#9aa3b2" font-size="8.5">VectorParameter</text><rect x="612" y="70" width="156" height="34" rx="6" fill="#5a62701f" stroke="#5a6270" stroke-width="1.4"/><rect x="612" y="70" width="4" height="34" rx="2" fill="#5a6270"/><text x="623" y="84" fill="#e6e9ef" font-size="9.5" font-weight="600">Tex * Tint</text><text x="623" y="96" fill="#9aa3b2" font-size="8.5">Multiply</text><rect x="416" y="162" width="156" height="34" rx="6" fill="#8b7cff1f" stroke="#8b7cff" stroke-width="2.2"/><rect x="416" y="162" width="4" height="34" rx="2" fill="#8b7cff"/><text x="427" y="176" fill="#e6e9ef" font-size="9.5" font-weight="600">Desaturation ★</text><text x="427" y="188" fill="#9aa3b2" font-size="8.5">ScalarParameter</text><rect x="808" y="70" width="156" height="34" rx="6" fill="#5a62701f" stroke="#5a6270" stroke-width="1.4"/><rect x="808" y="70" width="4" height="34" rx="2" fill="#5a6270"/><text x="819" y="84" fill="#e6e9ef" font-size="9.5" font-weight="600">Desaturate</text><text x="819" y="96" fill="#9aa3b2" font-size="8.5">Desaturation</text><rect x="416" y="208" width="156" height="34" rx="6" fill="#5b9dff1f" stroke="#5b9dff" stroke-width="1.4"/><rect x="416" y="208" width="4" height="34" rx="2" fill="#5b9dff"/><text x="427" y="222" fill="#e6e9ef" font-size="9.5" font-weight="600">Normal Tex</text><text x="427" y="234" fill="#9aa3b2" font-size="8.5">TextureSample</text><rect x="416" y="254" width="156" height="34" rx="6" fill="#8b7cff1f" stroke="#8b7cff" stroke-width="2.2"/><rect x="416" y="254" width="4" height="34" rx="2" fill="#8b7cff"/><text x="427" y="268" fill="#e6e9ef" font-size="9.5" font-weight="600">Normal Strength ★</text><text x="427" y="280" fill="#9aa3b2" font-size="8.5">ScalarParameter</text><rect x="612" y="116" width="156" height="34" rx="6" fill="#5a62701f" stroke="#5a6270" stroke-width="1.4"/><rect x="612" y="116" width="4" height="34" rx="2" fill="#5a6270"/><text x="623" y="130" fill="#e6e9ef" font-size="9.5" font-weight="600">Flatten Normal</text><text x="623" y="142" fill="#9aa3b2" font-size="8.5">FlattenNormal</text><rect x="416" y="300" width="156" height="34" rx="6" fill="#5b9dff1f" stroke="#5b9dff" stroke-width="1.4"/><rect x="416" y="300" width="4" height="34" rx="2" fill="#5b9dff"/><text x="427" y="314" fill="#e6e9ef" font-size="9.5" font-weight="600">Detail Normal</text><text x="427" y="326" fill="#9aa3b2" font-size="8.5">TextureSample</text><rect x="808" y="116" width="156" height="34" rx="6" fill="#5a62701f" stroke="#5a6270" stroke-width="1.4"/><rect x="808" y="116" width="4" height="34" rx="2" fill="#5a6270"/><text x="819" y="130" fill="#e6e9ef" font-size="9.5" font-weight="600">Blend Normals</text><text x="819" y="142" fill="#9aa3b2" font-size="8.5">BlendAngleCorrectedNormals</text><rect x="416" y="346" width="156" height="34" rx="6" fill="#5b9dff1f" stroke="#5b9dff" stroke-width="1.4"/><rect x="416" y="346" width="4" height="34" rx="2" fill="#5b9dff"/><text x="427" y="360" fill="#e6e9ef" font-size="9.5" font-weight="600">MRA Packed (R=Metal,G=</text><text x="427" y="372" fill="#9aa3b2" font-size="8.5">TextureSample</text><rect x="416" y="392" width="156" height="34" rx="6" fill="#8b7cff1f" stroke="#8b7cff" stroke-width="2.2"/><rect x="416" y="392" width="4" height="34" rx="2" fill="#8b7cff"/><text x="427" y="406" fill="#e6e9ef" font-size="9.5" font-weight="600">Metallic ★</text><text x="427" y="418" fill="#9aa3b2" font-size="8.5">ScalarParameter</text><rect x="808" y="162" width="156" height="34" rx="6" fill="#5a62701f" stroke="#5a6270" stroke-width="1.4"/><rect x="808" y="162" width="4" height="34" rx="2" fill="#5a6270"/><text x="819" y="176" fill="#e6e9ef" font-size="9.5" font-weight="600">Metal * Scale</text><text x="819" y="188" fill="#9aa3b2" font-size="8.5">Multiply</text><rect x="416" y="438" width="156" height="34" rx="6" fill="#8b7cff1f" stroke="#8b7cff" stroke-width="2.2"/><rect x="416" y="438" width="4" height="34" rx="2" fill="#8b7cff"/><text x="427" y="452" fill="#e6e9ef" font-size="9.5" font-weight="600">Roughness Min ★</text><text x="427" y="464" fill="#9aa3b2" font-size="8.5">ScalarParameter</text><rect x="416" y="484" width="156" height="34" rx="6" fill="#8b7cff1f" stroke="#8b7cff" stroke-width="2.2"/><rect x="416" y="484" width="4" height="34" rx="2" fill="#8b7cff"/><text x="427" y="498" fill="#e6e9ef" font-size="9.5" font-weight="600">Roughness Max ★</text><text x="427" y="510" fill="#9aa3b2" font-size="8.5">ScalarParameter</text><rect x="808" y="208" width="156" height="34" rx="6" fill="#5a62701f" stroke="#5a6270" stroke-width="1.4"/><rect x="808" y="208" width="4" height="34" rx="2" fill="#5a6270"/><text x="819" y="222" fill="#e6e9ef" font-size="9.5" font-weight="600">Roughness Remap</text><text x="819" y="234" fill="#9aa3b2" font-size="8.5">Lerp</text><rect x="416" y="530" width="156" height="34" rx="6" fill="#8b7cff1f" stroke="#8b7cff" stroke-width="2.2"/><rect x="416" y="530" width="4" height="34" rx="2" fill="#8b7cff"/><text x="427" y="544" fill="#e6e9ef" font-size="9.5" font-weight="600">AO Strength ★</text><text x="427" y="556" fill="#9aa3b2" font-size="8.5">ScalarParameter</text><rect x="808" y="254" width="156" height="34" rx="6" fill="#5a62701f" stroke="#5a6270" stroke-width="1.4"/><rect x="808" y="254" width="4" height="34" rx="2" fill="#5a6270"/><text x="819" y="268" fill="#e6e9ef" font-size="9.5" font-weight="600">AO Strength Lerp</text><text x="819" y="280" fill="#9aa3b2" font-size="8.5">Lerp</text><rect x="612" y="162" width="156" height="34" rx="6" fill="#5a62701f" stroke="#5a6270" stroke-width="1.4"/><rect x="612" y="162" width="4" height="34" rx="2" fill="#5a6270"/><text x="623" y="176" fill="#e6e9ef" font-size="9.5" font-weight="600">1.0</text><text x="623" y="188" fill="#9aa3b2" font-size="8.5">Constant</text><rect x="1396" y="70" width="156" height="34" rx="6" fill="#8b7cff1f" stroke="#8b7cff" stroke-width="2.2"/><rect x="1396" y="70" width="4" height="34" rx="2" fill="#8b7cff"/><text x="1407" y="84" fill="#e6e9ef" font-size="9.5" font-weight="600">Specular ★</text><text x="1407" y="96" fill="#9aa3b2" font-size="8.5">ScalarParameter</text><rect x="1004" y="70" width="156" height="34" rx="6" fill="#8b7cff1f" stroke="#8b7cff" stroke-width="2.2"/><rect x="1004" y="70" width="4" height="34" rx="2" fill="#8b7cff"/><text x="1015" y="84" fill="#e6e9ef" font-size="9.5" font-weight="600">Emissive Color ★</text><text x="1015" y="96" fill="#9aa3b2" font-size="8.5">VectorParameter</text><rect x="1004" y="116" width="156" height="34" rx="6" fill="#8b7cff1f" stroke="#8b7cff" stroke-width="2.2"/><rect x="1004" y="116" width="4" height="34" rx="2" fill="#8b7cff"/><text x="1015" y="130" fill="#e6e9ef" font-size="9.5" font-weight="600">Emissive Intensity ★</text><text x="1015" y="142" fill="#9aa3b2" font-size="8.5">ScalarParameter</text><rect x="1396" y="116" width="156" height="34" rx="6" fill="#5a62701f" stroke="#5a6270" stroke-width="1.4"/><rect x="1396" y="116" width="4" height="34" rx="2" fill="#5a6270"/><text x="1407" y="130" fill="#e6e9ef" font-size="9.5" font-weight="600">Emissive * Intensity</text><text x="1407" y="142" fill="#9aa3b2" font-size="8.5">Multiply</text></svg>