<svg viewBox="0 0 2158 606" width="2158" height="606" xmlns="http://www.w3.org/2000/svg" style="min-width:2158px"><rect x="0" y="0" width="2158" height="606" rx="12" fill="#14171d"/><text x="24" y="30" fill="#9aa3b2" font-size="13" font-weight="600">输入端 / Inputs · 深度 9</text><text x="2134" y="30" text-anchor="end" fill="#9aa3b2" font-size="13" font-weight="600">输出端 / Outputs</text><line x1="24" y1="42" x2="2134" y2="42" stroke="#2a2f3a" stroke-width="1"/><text x="1079.0" y="30" text-anchor="middle" fill="#8b7cff" font-size="12">数据流 →</text><path d="M1356,87 C1474,87 1474,179 1592,179" fill="none" stroke="#3a4150" stroke-width="1.3" opacity="0.65"/><path d="M1356,133 C1474,133 1474,179 1592,179" fill="none" stroke="#3a4150" stroke-width="1.3" opacity="0.65"/><path d="M1160,87 C1180,87 1180,179 1200,179" fill="none" stroke="#3a4150" stroke-width="1.3" opacity="0.65"/><path d="M1160,133 C1180,133 1180,179 1200,179" fill="none" stroke="#3a4150" stroke-width="1.3" opacity="0.65"/><path d="M180,87 C592,87 592,87 1004,87" fill="none" stroke="#3a4150" stroke-width="1.3" opacity="0.65"/><path d="M572,87 C592,87 592,87 612,87" fill="none" stroke="#3a4150" stroke-width="1.3" opacity="0.65"/><path d="M768,87 C788,87 788,87 808,87" fill="none" stroke="#3a4150" stroke-width="1.3" opacity="0.65"/><path d="M768,133 C788,133 788,87 808,87" fill="none" stroke="#3a4150" stroke-width="1.3" opacity="0.65"/><path d="M964,87 C984,87 984,179 1004,179" fill="none" stroke="#3a4150" stroke-width="1.3" opacity="0.65"/><path d="M768,179 C886,179 886,179 1004,179" fill="none" stroke="#3a4150" stroke-width="1.3" opacity="0.65"/><path d="M1160,179 C1180,179 1180,271 1200,271" fill="none" stroke="#3a4150" stroke-width="1.3" opacity="0.65"/><path d="M1356,271 C1376,271 1376,133 1396,133" fill="none" stroke="#3a4150" stroke-width="1.3" opacity="0.65"/><path d="M768,87 C1082,87 1082,133 1396,133" fill="none" stroke="#3a4150" stroke-width="1.3" opacity="0.65"/><path d="M1552,133 C1572,133 1572,271 1592,271" fill="none" stroke="#3a4150" stroke-width="1.3" opacity="0.65"/><path d="M1356,317 C1474,317 1474,271 1592,271" fill="none" stroke="#3a4150" stroke-width="1.3" opacity="0.65"/><path d="M1748,501 C1768,501 1768,87 1788,87" fill="none" stroke="#3a4150" stroke-width="1.3" opacity="0.65"/><path d="M1748,271 C1768,271 1768,87 1788,87" fill="none" stroke="#3a4150" stroke-width="1.3" opacity="0.65"/><path d="M1748,547 C1768,547 1768,87 1788,87" fill="none" stroke="#3a4150" stroke-width="1.3" opacity="0.65"/><path d="M1552,87 C1768,87 1768,87 1984,87" fill="none" stroke="#8b7cff" stroke-width="1.6" opacity="0.85"/><rect x="1984" y="70" width="150" height="34" rx="6" fill="#8b7cff22" stroke="#8b7cff" stroke-width="1.5"/><text x="2059.0" y="91" text-anchor="middle" fill="#fff" font-size="11" font-weight="700">BaseColor</text><path d="M1748,87 C1866,87 1866,133 1984,133" fill="none" stroke="#8b7cff" stroke-width="1.6" opacity="0.85"/><rect x="1984" y="116" width="150" height="34" rx="6" fill="#8b7cff22" stroke="#8b7cff" stroke-width="1.5"/><text x="2059.0" y="137" text-anchor="middle" fill="#fff" font-size="11" font-weight="700">Metallic</text><path d="M1748,133 C1866,133 1866,179 1984,179" fill="none" stroke="#8b7cff" stroke-width="1.6" opacity="0.85"/><rect x="1984" y="162" width="150" height="34" rx="6" fill="#8b7cff22" stroke="#8b7cff" stroke-width="1.5"/><text x="2059.0" y="183" text-anchor="middle" fill="#fff" font-size="11" font-weight="700">Roughness</text><path d="M1748,225 C1866,225 1866,225 1984,225" fill="none" stroke="#8b7cff" stroke-width="1.6" opacity="0.85"/><rect x="1984" y="208" width="150" height="34" rx="6" fill="#8b7cff22" stroke="#8b7cff" stroke-width="1.5"/><text x="2059.0" y="229" text-anchor="middle" fill="#fff" font-size="11" font-weight="700">Anisotropy</text><path d="M1356,179 C1670,179 1670,271 1984,271" fill="none" stroke="#8b7cff" stroke-width="1.6" opacity="0.85"/><rect x="1984" y="254" width="150" height="34" rx="6" fill="#8b7cff22" stroke="#8b7cff" stroke-width="1.5"/><text x="2059.0" y="275" text-anchor="middle" fill="#fff" font-size="11" font-weight="700">Tangent</text><path d="M1748,179 C1866,179 1866,317 1984,317" fill="none" stroke="#8b7cff" stroke-width="1.6" opacity="0.85"/><rect x="1984" y="300" width="150" height="34" rx="6" fill="#8b7cff22" stroke="#8b7cff" stroke-width="1.5"/><text x="2059.0" y="321" text-anchor="middle" fill="#fff" font-size="11" font-weight="700">SubsurfaceColor</text><path d="M1748,317 C1866,317 1866,363 1984,363" fill="none" stroke="#8b7cff" stroke-width="1.6" opacity="0.85"/><rect x="1984" y="346" width="150" height="34" rx="6" fill="#8b7cff22" stroke="#8b7cff" stroke-width="1.5"/><text x="2059.0" y="367" text-anchor="middle" fill="#fff" font-size="11" font-weight="700">ClearCoat</text><path d="M1748,363 C1866,363 1866,409 1984,409" fill="none" stroke="#8b7cff" stroke-width="1.6" opacity="0.85"/><rect x="1984" y="392" width="150" height="34" rx="6" fill="#8b7cff22" stroke="#8b7cff" stroke-width="1.5"/><text x="2059.0" y="413" text-anchor="middle" fill="#fff" font-size="11" font-weight="700">ClearCoatRoughness</text><path d="M1944,87 C1964,87 1964,455 1984,455" fill="none" stroke="#8b7cff" stroke-width="1.6" opacity="0.85"/><rect x="1984" y="438" width="150" height="34" rx="6" fill="#8b7cff22" stroke="#8b7cff" stroke-width="1.5"/><text x="2059.0" y="459" text-anchor="middle" fill="#fff" font-size="11" font-weight="700">EmissiveColor</text><rect x="24" y="70" width="156" height="34" rx="6" fill="#5a62701f" stroke="#5a6270" stroke-width="1.4"/><rect x="24" y="70" width="4" height="34" rx="2" fill="#5a6270"/><text x="35" y="84" fill="#e6e9ef" font-size="9.5" font-weight="600">UV0</text><text x="35" y="96" fill="#9aa3b2" font-size="8.5">TexCoord</text><rect x="1396" y="70" width="156" height="34" rx="6" fill="#8b7cff1f" stroke="#8b7cff" stroke-width="2.2"/><rect x="1396" y="70" width="4" height="34" rx="2" fill="#8b7cff"/><text x="1407" y="84" fill="#e6e9ef" font-size="9.5" font-weight="600">Base Color ★</text><text x="1407" y="96" fill="#9aa3b2" font-size="8.5">VectorParameter</text><rect x="1592" y="70" width="156" height="34" rx="6" fill="#8b7cff1f" stroke="#8b7cff" stroke-width="2.2"/><rect x="1592" y="70" width="4" height="34" rx="2" fill="#8b7cff"/><text x="1603" y="84" fill="#e6e9ef" font-size="9.5" font-weight="600">Metallic ★</text><text x="1603" y="96" fill="#9aa3b2" font-size="8.5">ScalarParameter</text><rect x="1592" y="116" width="156" height="34" rx="6" fill="#8b7cff1f" stroke="#8b7cff" stroke-width="2.2"/><rect x="1592" y="116" width="4" height="34" rx="2" fill="#8b7cff"/><text x="1603" y="130" fill="#e6e9ef" font-size="9.5" font-weight="600">Roughness ★</text><text x="1603" y="142" fill="#9aa3b2" font-size="8.5">ScalarParameter</text><rect x="1200" y="70" width="156" height="34" rx="6" fill="#8b7cff1f" stroke="#8b7cff" stroke-width="2.2"/><rect x="1200" y="70" width="4" height="34" rx="2" fill="#8b7cff"/><text x="1211" y="84" fill="#e6e9ef" font-size="9.5" font-weight="600">Subsurface Color ★</text><text x="1211" y="96" fill="#9aa3b2" font-size="8.5">VectorParameter</text><rect x="1200" y="116" width="156" height="34" rx="6" fill="#8b7cff1f" stroke="#8b7cff" stroke-width="2.2"/><rect x="1200" y="116" width="4" height="34" rx="2" fill="#8b7cff"/><text x="1211" y="130" fill="#e6e9ef" font-size="9.5" font-weight="600">SSS Amount ★</text><text x="1211" y="142" fill="#9aa3b2" font-size="8.5">ScalarParameter</text><rect x="1592" y="162" width="156" height="34" rx="6" fill="#5a62701f" stroke="#5a6270" stroke-width="1.4"/><rect x="1592" y="162" width="4" height="34" rx="2" fill="#5a6270"/><text x="1603" y="176" fill="#e6e9ef" font-size="9.5" font-weight="600">SSS Color * Amount</text><text x="1603" y="188" fill="#9aa3b2" font-size="8.5">Multiply</text><rect x="1592" y="208" width="156" height="34" rx="6" fill="#8b7cff1f" stroke="#8b7cff" stroke-width="2.2"/><rect x="1592" y="208" width="4" height="34" rx="2" fill="#8b7cff"/><text x="1603" y="222" fill="#e6e9ef" font-size="9.5" font-weight="600">Anisotropy ★</text><text x="1603" y="234" fill="#9aa3b2" font-size="8.5">ScalarParameter</text><rect x="1004" y="70" width="156" height="34" rx="6" fill="#5b9dff1f" stroke="#5b9dff" stroke-width="1.4"/><rect x="1004" y="70" width="4" height="34" rx="2" fill="#5b9dff"/><text x="1015" y="84" fill="#e6e9ef" font-size="9.5" font-weight="600">Tangent/Flow Map</text><text x="1015" y="96" fill="#9aa3b2" font-size="8.5">TextureSample</text><rect x="1004" y="116" width="156" height="34" rx="6" fill="#8b7cff1f" stroke="#8b7cff" stroke-width="2.2"/><rect x="1004" y="116" width="4" height="34" rx="2" fill="#8b7cff"/><text x="1015" y="130" fill="#e6e9ef" font-size="9.5" font-weight="600">Tangent Strength ★</text><text x="1015" y="142" fill="#9aa3b2" font-size="8.5">ScalarParameter</text><rect x="1200" y="162" width="156" height="34" rx="6" fill="#5a62701f" stroke="#5a6270" stroke-width="1.4"/><rect x="1200" y="162" width="4" height="34" rx="2" fill="#5a6270"/><text x="1211" y="176" fill="#e6e9ef" font-size="9.5" font-weight="600">Flatten Tangent</text><text x="1211" y="188" fill="#9aa3b2" font-size="8.5">FlattenNormal</text><rect x="612" y="70" width="156" height="34" rx="6" fill="#5a62701f" stroke="#5a6270" stroke-width="1.4"/><rect x="612" y="70" width="4" height="34" rx="2" fill="#5a6270"/><text x="623" y="84" fill="#e6e9ef" font-size="9.5" font-weight="600">Iridescence Fresnel</text><text x="623" y="96" fill="#9aa3b2" font-size="8.5">Fresnel</text><rect x="416" y="70" width="156" height="34" rx="6" fill="#8b7cff1f" stroke="#8b7cff" stroke-width="2.2"/><rect x="416" y="70" width="4" height="34" rx="2" fill="#8b7cff"/><text x="427" y="84" fill="#e6e9ef" font-size="9.5" font-weight="600">Iridescence Power ★</text><text x="427" y="96" fill="#9aa3b2" font-size="8.5">ScalarParameter</text><rect x="612" y="116" width="156" height="34" rx="6" fill="#8b7cff1f" stroke="#8b7cff" stroke-width="2.2"/><rect x="612" y="116" width="4" height="34" rx="2" fill="#8b7cff"/><text x="623" y="130" fill="#e6e9ef" font-size="9.5" font-weight="600">Iridescence Hue Shift ★</text><text x="623" y="142" fill="#9aa3b2" font-size="8.5">ScalarParameter</text><rect x="808" y="70" width="156" height="34" rx="6" fill="#5a62701f" stroke="#5a6270" stroke-width="1.4"/><rect x="808" y="70" width="4" height="34" rx="2" fill="#5a6270"/><text x="819" y="84" fill="#e6e9ef" font-size="9.5" font-weight="600">Phase + Shift</text><text x="819" y="96" fill="#9aa3b2" font-size="8.5">Add</text><rect x="612" y="162" width="156" height="34" rx="6" fill="#8b7cff1f" stroke="#8b7cff" stroke-width="2.2"/><rect x="612" y="162" width="4" height="34" rx="2" fill="#8b7cff"/><text x="623" y="176" fill="#e6e9ef" font-size="9.5" font-weight="600">Iridescence Bands ★</text><text x="623" y="188" fill="#9aa3b2" font-size="8.5">ScalarParameter</text><rect x="1004" y="162" width="156" height="34" rx="6" fill="#5a62701f" stroke="#5a6270" stroke-width="1.4"/><rect x="1004" y="162" width="4" height="34" rx="2" fill="#5a6270"/><text x="1015" y="176" fill="#e6e9ef" font-size="9.5" font-weight="600">Phase * Bands</text><text x="1015" y="188" fill="#9aa3b2" font-size="8.5">Multiply</text><rect x="1200" y="208" width="156" height="34" rx="6" fill="#ffb84d1f" stroke="#ffb84d" stroke-width="1.4"/><rect x="1200" y="208" width="4" height="34" rx="2" fill="#ffb84d"/><text x="1211" y="222" fill="#e6e9ef" font-size="9.5" font-weight="600">Sine R</text><text x="1211" y="234" fill="#9aa3b2" font-size="8.5">Sine</text><rect x="1200" y="254" width="156" height="34" rx="6" fill="#ff7eb61f" stroke="#ff7eb6" stroke-width="1.4"/><rect x="1200" y="254" width="4" height="34" rx="2" fill="#ff7eb6"/><text x="1211" y="268" fill="#e6e9ef" font-size="9.5" font-weight="600">Rainbow RGB</text><text x="1211" y="280" fill="#9aa3b2" font-size="8.5">CustomExpression</text><rect x="1200" y="300" width="156" height="34" rx="6" fill="#8b7cff1f" stroke="#8b7cff" stroke-width="2.2"/><rect x="1200" y="300" width="4" height="34" rx="2" fill="#8b7cff"/><text x="1211" y="314" fill="#e6e9ef" font-size="9.5" font-weight="600">Iridescence Intensity ★</text><text x="1211" y="326" fill="#9aa3b2" font-size="8.5">ScalarParameter</text><rect x="1396" y="116" width="156" height="34" rx="6" fill="#5a62701f" stroke="#5a6270" stroke-width="1.4"/><rect x="1396" y="116" width="4" height="34" rx="2" fill="#5a6270"/><text x="1407" y="130" fill="#e6e9ef" font-size="9.5" font-weight="600">Rainbow * Fresnel</text><text x="1407" y="142" fill="#9aa3b2" font-size="8.5">Multiply</text><rect x="1592" y="254" width="156" height="34" rx="6" fill="#5a62701f" stroke="#5a6270" stroke-width="1.4"/><rect x="1592" y="254" width="4" height="34" rx="2" fill="#5a6270"/><text x="1603" y="268" fill="#e6e9ef" font-size="9.5" font-weight="600">* Intensity</text><text x="1603" y="280" fill="#9aa3b2" font-size="8.5">Multiply</text><rect x="1592" y="300" width="156" height="34" rx="6" fill="#8b7cff1f" stroke="#8b7cff" stroke-width="2.2"/><rect x="1592" y="300" width="4" height="34" rx="2" fill="#8b7cff"/><text x="1603" y="314" fill="#e6e9ef" font-size="9.5" font-weight="600">Clear Coat ★</text><text x="1603" y="326" fill="#9aa3b2" font-size="8.5">ScalarParameter</text><rect x="1592" y="346" width="156" height="34" rx="6" fill="#8b7cff1f" stroke="#8b7cff" stroke-width="2.2"/><rect x="1592" y="346" width="4" height="34" rx="2" fill="#8b7cff"/><text x="1603" y="360" fill="#e6e9ef" font-size="9.5" font-weight="600">Clear Coat Roughness ★</text><text x="1603" y="372" fill="#9aa3b2" font-size="8.5">ScalarParameter</text><rect x="1592" y="392" width="156" height="34" rx="6" fill="#8b7cff1f" stroke="#8b7cff" stroke-width="2.2"/><rect x="1592" y="392" width="4" height="34" rx="2" fill="#8b7cff"/><text x="1603" y="406" fill="#e6e9ef" font-size="9.5" font-weight="600">Fuzz Color ★</text><text x="1603" y="418" fill="#9aa3b2" font-size="8.5">VectorParameter</text><rect x="1592" y="438" width="156" height="34" rx="6" fill="#8b7cff1f" stroke="#8b7cff" stroke-width="2.2"/><rect x="1592" y="438" width="4" height="34" rx="2" fill="#8b7cff"/><text x="1603" y="452" fill="#e6e9ef" font-size="9.5" font-weight="600">Cloth Amount ★</text><text x="1603" y="464" fill="#9aa3b2" font-size="8.5">ScalarParameter</text><rect x="1592" y="484" width="156" height="34" rx="6" fill="#8b7cff1f" stroke="#8b7cff" stroke-width="2.2"/><rect x="1592" y="484" width="4" height="34" rx="2" fill="#8b7cff"/><text x="1603" y="498" fill="#e6e9ef" font-size="9.5" font-weight="600">Enable Iridescence ★</text><text x="1603" y="510" fill="#9aa3b2" font-size="8.5">StaticSwitchParameter</text><rect x="1788" y="70" width="156" height="34" rx="6" fill="#ff9d5c1f" stroke="#ff9d5c" stroke-width="1.4"/><rect x="1788" y="70" width="4" height="34" rx="2" fill="#ff9d5c"/><text x="1799" y="84" fill="#e6e9ef" font-size="9.5" font-weight="600">Iridescence Switch</text><text x="1799" y="96" fill="#9aa3b2" font-size="8.5">If</text><rect x="1592" y="530" width="156" height="34" rx="6" fill="#5a62701f" stroke="#5a6270" stroke-width="1.4"/><rect x="1592" y="530" width="4" height="34" rx="2" fill="#5a6270"/><text x="1603" y="544" fill="#e6e9ef" font-size="9.5" font-weight="600">Zero</text><text x="1603" y="556" fill="#9aa3b2" font-size="8.5">Constant3Vector</text></svg>